# xmcd CD database file
# Copyright (C) 1993-1998 Ti Kan
#
# Track frame offsets:
#	182
#	28352
#	49757
#	80670
#	99127
#	127797
#	158020
#	187475
#	207805
#	243375
#
# Disc length: 3505 seconds
#
# Revision: 0
# Processed by: cddbd v1.4b41PL1 Copyright (c) Steve Scherf et al.
# Submitted via: CDmax 1.5
#
DISCID=810daf0a
DTITLE=Blue Heat - Irresistible Behaviour
DYEAR=1900
DGENRE=
TTITLE0=Right Track
TTITLE1=What am I Doin' wrong
TTITLE2=Feel Like Hell
TTITLE3=Bring it on up
TTITLE4=Don't you love me too much
TTITLE5=I'm Comin' Home
TTITLE6=Twisted up
TTITLE7=How Far
TTITLE8=Hey Hey Hey
TTITLE9=Shuffle up
EXTD=
EXTT0=
EXTT1=
EXTT2=
EXTT3=
EXTT4=
EXTT5=
EXTT6=
EXTT7=
EXTT8=
EXTT9=
PLAYORDER=
